<?xml version="1.0" encoding="UTF-8" standalone="no"?>
<!-- Created with Inkscape (http://www.inkscape.org/) -->

<svg
   xmlns:dc="http://purl.org/dc/elements/1.1/"
   xmlns:cc="http://creativecommons.org/ns#"
   xmlns:rdf="http://www.w3.org/1999/02/22-rdf-syntax-ns#"
   xmlns:svg="http://www.w3.org/2000/svg"
   xmlns="http://www.w3.org/2000/svg"
   xmlns:xlink="http://www.w3.org/1999/xlink"
   xmlns:sodipodi="http://sodipodi.sourceforge.net/DTD/sodipodi-0.dtd"
   xmlns:inkscape="http://www.inkscape.org/namespaces/inkscape"
   width="592.52094"
   height="161.32156"
   id="svg3058"
   version="1.1"
   inkscape:version="0.92.4 5da689c313, 2019-01-14"
   sodipodi:docname="freifunk_ortenau_logo_wide.svg">
  <defs
     id="defs3060" />
  <sodipodi:namedview
     id="base"
     pagecolor="#ffffff"
     bordercolor="#666666"
     borderopacity="1.0"
     inkscape:pageopacity="1"
     inkscape:pageshadow="2"
     inkscape:zoom="1.4"
     inkscape:cx="224.06566"
     inkscape:cy="145.01795"
     inkscape:document-units="px"
     inkscape:current-layer="g3825"
     showgrid="false"
     units="px"
     inkscape:window-width="1458"
     inkscape:window-height="1016"
     inkscape:window-x="222"
     inkscape:window-y="27"
     inkscape:window-maximized="0"
     inkscape:snap-bbox="true"
     inkscape:bbox-paths="true"
     inkscape:bbox-nodes="true"
     inkscape:snap-bbox-edge-midpoints="true"
     inkscape:snap-bbox-midpoints="true"
     inkscape:snap-global="true"
     showguides="false"
     inkscape:guide-bbox="true"
     width="800px"
     fit-margin-top="0"
     fit-margin-left="0"
     fit-margin-right="0"
     fit-margin-bottom="0"
     inkscape:pagecheckerboard="true">
    <sodipodi:guide
       orientation="0,1"
       position="385.3781,-3.5578039e-05"
       id="guide3186"
       inkscape:locked="false" />
    <sodipodi:guide
       orientation="0,1"
       position="226.09239,249.99996"
       id="guide3196"
       inkscape:locked="false" />
    <sodipodi:guide
       orientation="1,0"
       position="-77.479042,178.99996"
       id="guide3198"
       inkscape:locked="false" />
    <sodipodi:guide
       orientation="1,0"
       position="592.52096,140.42853"
       id="guide3200"
       inkscape:locked="false" />
  </sodipodi:namedview>
  <metadata
     id="metadata3063">
    <rdf:RDF>
      <cc:Work
         rdf:about="">
        <dc:format>image/svg+xml</dc:format>
        <dc:type
           rdf:resource="http://purl.org/dc/dcmitype/StillImage" />
        <dc:title></dc:title>
        <dc:creator>
          <cc:Agent>
            <dc:title></dc:title>
          </cc:Agent>
        </dc:creator>
        <dc:publisher>
          <cc:Agent>
            <dc:title></dc:title>
          </cc:Agent>
        </dc:publisher>
        <dc:source></dc:source>
        <dc:subject>
          <rdf:Bag />
        </dc:subject>
        <dc:contributor>
          <cc:Agent>
            <dc:title></dc:title>
          </cc:Agent>
        </dc:contributor>
      </cc:Work>
    </rdf:RDF>
  </metadata>
  <g
     inkscape:label="Ebene 1"
     inkscape:groupmode="layer"
     id="layer1"
     transform="translate(-92.479042,-880.04064)">
    <g
       id="g3825"
       transform="matrix(1.8326285,0,0,1.8326285,-36.134985,-852.66284)">
      <g
         id="g3811">
        <path
           inkscape:connector-curvature="0"
           d="m 142.97626,1032.3895 h 4.06665 v -15.3862 h 1.2501 v -3.0215 h -1.2501 v -0.355 c -0.0115,-0.3861 0.0437,-0.6712 0.16853,-0.8554 0.12394,-0.1843 0.38844,-0.2758 0.79305,-0.2744 h 0.28852 v -3.0216 h -1.69824 c -1.29956,-0.023 -2.23093,0.2077 -2.794,0.6911 -0.56308,0.4836 -0.83781,1.3573 -0.82451,2.621 v 1.1943 h -0.96167 v 3.0215 h 0.96167 z"
           id="f-6-9-0-6"
           style="fill:#000000;fill-opacity:1" />
        <path
           inkscape:connector-curvature="0"
           d="m 153.63602,1013.9818 h -4.0669 v 18.4077 h 4.0669 v -14.3239 c -0.008,-0.2373 0.0446,-0.4547 0.14855,-0.6518 0.1038,-0.1972 0.28992,-0.3016 0.55845,-0.3139 0.26994,0.012 0.46144,0.1167 0.57456,0.3139 0.11329,0.1971 0.16812,0.4145 0.16466,0.6518 v 5.8261 h 4.06688 v -6.9204 c 0.0206,-1.0058 -0.14879,-1.7908 -0.5084,-2.3549 -0.35969,-0.564 -1.03343,-0.8506 -2.02144,-0.86 -0.69982,0.01 -1.28627,0.1641 -1.75901,0.4782 -0.47249,0.314 -0.85936,0.755 -1.16017,1.3223 h -0.0644 v -1.5751 z"
           id="r-7-6-2-4"
           style="fill:#000000;fill-opacity:1" />
        <path
           inkscape:connector-curvature="0"
           d="m 160.91911,1028.4656 c 0.0363,1.3834 0.50767,2.4208 1.41329,3.1121 0.90551,0.6915 2.0258,1.037 3.36062,1.037 1.32211,0 2.4438,-0.3455 3.36443,-1.037 0.92112,-0.6913 1.40154,-1.7287 1.44144,-3.1121 v -3.379 h -4.06666 v 3.5401 c 0,0.2377 -0.0513,0.455 -0.16465,0.6524 -0.1133,0.1972 -0.30461,0.302 -0.57456,0.3141 -0.26853,-0.012 -0.45482,-0.1169 -0.55845,-0.3141 -0.10404,-0.1974 -0.15342,-0.4147 -0.1488,-0.6524 v -4.7993 h 5.51312 v -5.9217 c -0.0396,-1.3834 -0.52031,-2.4208 -1.44144,-3.1123 -0.92062,-0.6912 -2.04232,-1.037 -3.36443,-1.037 -1.33482,0 -2.45511,0.3458 -3.36062,1.037 -0.90561,0.6915 -1.37678,1.7289 -1.41327,3.1123 v 10.5599 z m 4.06666,-7.4025 v -3.3185 c -0.008,-0.2375 0.0446,-0.455 0.14879,-0.6524 0.10364,-0.1974 0.28993,-0.302 0.55846,-0.314 0.26994,0.012 0.46126,0.1166 0.57456,0.314 0.11304,0.1974 0.16787,0.4149 0.16465,0.6524 v 3.3185 z"
           id="e-4-4-4-1"
           style="fill:#000000;fill-opacity:1" />
        <path
           inkscape:connector-curvature="0"
           d="m 176.43181,1032.3895 v -18.4077 h -4.06665 v 18.4077 z m 0,-19.4417 v -3.4724 h -4.06665 v 3.4724 z"
           id="i-0-3-8-3"
           style="fill:#000000;fill-opacity:1" />
        <use
           height="234"
           width="243"
           y="0"
           x="0"
           transform="translate(35.897125)"
           id="f2-5-9-6-6"
           xlink:href="#f-6-9-0-6"
           style="fill:#000000;fill-opacity:1" />
        <path
           inkscape:connector-curvature="0"
           d="m 190.98445,1032.3894 h 4.0669 v -18.4077 h -4.0669 v 14.3239 c 0.008,0.2373 -0.0446,0.4547 -0.14855,0.6518 -0.1038,0.1972 -0.29008,0.3016 -0.55845,0.3139 -0.26994,-0.012 -0.46143,-0.1167 -0.57456,-0.3139 -0.11304,-0.1971 -0.16812,-0.4145 -0.16465,-0.6518 v -14.3239 h -4.06689 v 14.6134 c -0.0503,1.0961 0.0743,2.0315 0.37241,2.8061 0.2981,0.7741 1.07066,1.1787 2.31754,1.2136 0.57513,-0.01 1.13905,-0.1707 1.69139,-0.4943 0.55217,-0.3235 0.90823,-0.7697 1.06753,-1.3382 h 0.0644 v 1.6071 z"
           id="u-9-5-5-1"
           style="fill:#000000;fill-opacity:1" />
        <use
           height="234"
           width="243"
           y="0"
           x="0"
           transform="rotate(180,195.9337,1023.1856)"
           id="n-6-7-0-0"
           xlink:href="#u-9-5-5-1"
           style="fill:#000000;fill-opacity:1" />
        <path
           inkscape:connector-curvature="0"
           d="m 212.29706,1032.3895 v -9.6866 h 0.0644 l 1.63457,9.6866 h 4.16706 l -1.92325,-10.4911 1.98733,-7.9166 h -4.23114 l -1.63457,8.2706 h -0.0644 v -12.777 h -4.0669 v 22.9141 z"
           id="k-5-4-9-3"
           style="fill:#000000;fill-opacity:1" />
        <path
           inkscape:connector-curvature="0"
           d="m 223.96737,1032.3895 v -4.7599 h -4.06665 v 4.7599 z"
           id=".-5-9-0-2"
           style="fill:#000000;fill-opacity:1" />
        <use
           height="234"
           width="243"
           y="0"
           x="0"
           transform="rotate(180,210.58287,1023.1856)"
           id="n2-6-1-0-7"
           xlink:href="#u-9-5-5-1"
           style="fill:#000000;fill-opacity:1" />
        <use
           height="234"
           width="243"
           y="0"
           x="0"
           transform="translate(76.545274)"
           id="e2-4-4-6-0"
           xlink:href="#e-4-4-4-1"
           style="fill:#000000;fill-opacity:1" />
        <path
           inkscape:connector-curvature="0"
           d="m 253.52198,1010.634 h -4.06665 v 3.3478 h -1.0899 v 3.0215 h 1.0899 v 11.6561 c -0.0396,1.3936 0.16747,2.369 0.62047,2.9263 0.45284,0.5573 1.38825,0.8252 2.8059,0.8038 h 1.82648 v -3.0217 h -0.48101 c -0.29578,-0.017 -0.48934,-0.1528 -0.58082,-0.4105 -0.0915,-0.2576 -0.13304,-0.5395 -0.12437,-0.8451 v -11.1089 h 1.12212 v -3.0215 h -1.12212 z"
           id="t-1-5-1-5"
           style="fill:#000000;fill-opacity:1" />
      </g>
      <path
         inkscape:connector-curvature="0"
         d="m 140.60974,1032.3895 v -4.7599 h -4.06665 v 4.7599 z"
         id="path55392-0-6-4-4"
         style="fill:#dc0067;fill-opacity:1" />
      <text
         xml:space="preserve"
         style="font-style:normal;font-variant:normal;font-weight:normal;font-stretch:normal;font-size:6.98450422px;line-height:0%;font-family:'Just Another Hand';-inkscape-font-specification:'Just Another Hand, Normal';text-align:start;letter-spacing:0px;word-spacing:0px;writing-mode:lr-tb;text-anchor:start;fill:#dc0067;fill-opacity:1;stroke:none;stroke-width:0.58204198px;stroke-linecap:butt;stroke-linejoin:miter;stroke-opacity:1"
         x="71.989876"
         y="998.94391"
         id="text4171"
         transform="scale(0.96764064,1.0334415)"><tspan
           sodipodi:role="line"
           id="tspan4173"
           x="71.989876"
           y="998.94391"
           style="font-style:normal;font-variant:normal;font-weight:normal;font-stretch:normal;font-size:40.74293518px;line-height:129.99999523%;font-family:'Just Another Hand';-inkscape-font-specification:'Just Another Hand, Normal';text-align:start;writing-mode:lr-tb;text-anchor:start;fill:#dc0067;fill-opacity:1;stroke-width:0.58204198px">ortenau</tspan></text>
    </g>
    <g
       id="g3145"
       transform="matrix(1.2317367,0,0,1.2317367,371.12817,-179.18519)">
      <g
         id="g3851">
        <path
           d="m 168.38376,937.23491 18.01227,-18.09426 h 16.96311 l -12.00778,12.0631 24.03666,-2.2e-4 v 12.06118 h -24.03666 l 12.00778,12.06278 h -16.96311 l -18.01227,-18.09417 z"
           id="path7-7-3-8-7"
           style="fill:#ffb400;fill-opacity:1"
           inkscape:connector-curvature="0" />
        <path
           style="color:#000000;font-style:normal;font-variant:normal;font-weight:normal;font-stretch:normal;font-size:medium;line-height:normal;font-family:sans-serif;text-indent:0;text-align:start;text-decoration:none;text-decoration-line:none;letter-spacing:normal;word-spacing:normal;text-transform:none;writing-mode:lr-tb;direction:ltr;baseline-shift:baseline;text-anchor:start;display:inline;overflow:visible;visibility:visible;fill:#dc0067;fill-opacity:1;fill-rule:nonzero;stroke:none;enable-background:accumulate"
           d="m 189.5868,878.64258 c -25.72526,0 -46.59553,20.95966 -46.59553,46.78675 0,25.8272 20.87029,46.78895 46.59553,46.78895 25.72535,0 46.59554,-20.96175 46.59554,-46.78895 0,-25.82709 -20.87018,-46.78675 -46.59554,-46.78675 z m 0,1.89679 c 24.69605,0 44.69874,20.08354 44.69874,44.88996 0,24.80653 -20.00268,44.89216 -44.69874,44.89216 -24.69595,0 -44.69874,-20.08563 -44.69874,-44.89216 0,-24.80641 20.0028,-44.88996 44.69874,-44.88996 z"
           id="path6-4-7-4-9"
           inkscape:connector-curvature="0" />
        <path
           style="color:#000000;font-style:normal;font-variant:normal;font-weight:normal;font-stretch:normal;font-size:medium;line-height:normal;font-family:sans-serif;text-indent:0;text-align:start;text-decoration:none;text-decoration-line:none;letter-spacing:normal;word-spacing:normal;text-transform:none;writing-mode:lr-tb;direction:ltr;baseline-shift:baseline;text-anchor:start;display:inline;overflow:visible;visibility:visible;fill:#dc0067;fill-opacity:1;fill-rule:nonzero;stroke:none;enable-background:accumulate"
           d="m 189.5868,859.94501 c -35.9734,0 -65.23374,29.39773 -65.23374,65.48432 0,36.08648 29.26034,65.4865 65.23374,65.4865 35.9737,0 65.23375,-29.40002 65.23375,-65.4865 0,-36.08659 -29.26005,-65.48432 -65.23375,-65.48432 z m 0,11.33899 c 29.81949,0 53.89257,24.16136 53.89257,54.14533 0,29.98384 -24.07308,54.14533 -53.89257,54.14532 -29.81912,0 -53.89477,-24.16148 -53.89477,-54.14532 0,-29.98397 24.07565,-54.14533 53.89477,-54.14533 z"
           id="path5-2-4-3-2"
           inkscape:connector-curvature="0" />
      </g>
      <g
         id="g3847">
        <path
           d="M 114.95751,937.23491 104.31935,926.54833 H 94.300609 l 7.091881,7.12451 -14.194871,2e-4 v 7.12608 h 14.194871 l -7.091881,7.12451 h 10.018741 l 10.63816,-10.68681 z"
           id="path4-0-4-2-3"
           style="fill:#ffb400;fill-opacity:1"
           inkscape:connector-curvature="0" />
        <path
           inkscape:connector-curvature="0"
           id="path6054"
           d="m 113.85587,903.25909 c -24.012281,0 -43.494291,19.56749 -43.494291,43.67452 0,24.10723 19.482,43.67232 43.494291,43.67232 24.0126,0 43.49429,-19.56509 43.49429,-43.67232 0,-24.10702 -19.4817,-43.67452 -43.49429,-43.67452 z m 0,1.89679 c 22.98331,0 41.59751,18.6914 41.59751,41.77773 0,23.08655 -18.61421,41.77553 -41.59751,41.77553 -22.982961,0 -41.597501,-18.68898 -41.597501,-41.77553 0,-23.08634 18.61452,-41.77773 41.597501,-41.77773 z"
           style="color:#000000;font-style:normal;font-variant:normal;font-weight:normal;font-stretch:normal;font-size:medium;line-height:normal;font-family:sans-serif;text-indent:0;text-align:start;text-decoration:none;text-decoration-line:none;letter-spacing:normal;word-spacing:normal;text-transform:none;writing-mode:lr-tb;direction:ltr;baseline-shift:baseline;text-anchor:start;display:inline;overflow:visible;visibility:visible;fill:#dc0067;fill-opacity:1;fill-rule:nonzero;stroke:none;enable-background:accumulate" />
      </g>
    </g>
  </g>
</svg>
