<?xml version="1.0" encoding="UTF-8" standalone="no"?>
<!-- Created with Inkscape (http://www.inkscape.org/) -->

<svg
   xmlns:dc="http://purl.org/dc/elements/1.1/"
   xmlns:cc="http://creativecommons.org/ns#"
   xmlns:rdf="http://www.w3.org/1999/02/22-rdf-syntax-ns#"
   xmlns:svg="http://www.w3.org/2000/svg"
   xmlns="http://www.w3.org/2000/svg"
   xmlns:xlink="http://www.w3.org/1999/xlink"
   xmlns:sodipodi="http://sodipodi.sourceforge.net/DTD/sodipodi-0.dtd"
   xmlns:inkscape="http://www.inkscape.org/namespaces/inkscape"
   width="283.46457"
   height="283.46457"
   id="svg3058"
   version="1.1"
   inkscape:version="0.91 r13725"
   inkscape:export-filename="/home/jannis/Dokumente/ffog/propaganda/freifunk_ortenau_logo_hotspot_3000.png"
   inkscape:export-xdpi="1399.66"
   inkscape:export-ydpi="1399.66"
   sodipodi:docname="freifunk_ortenau_logo_hotspot.svg">
  <title
     id="title4516">Freifunk Ortenau Logo</title>
  <defs
     id="defs3060" />
  <sodipodi:namedview
     id="base"
     pagecolor="#ffffff"
     bordercolor="#666666"
     borderopacity="1.0"
     inkscape:pageopacity="0.0"
     inkscape:pageshadow="2"
     inkscape:zoom="1.4"
     inkscape:cx="235.63113"
     inkscape:cy="93.405518"
     inkscape:document-units="mm"
     inkscape:current-layer="layer1"
     showgrid="false"
     units="mm"
     inkscape:window-width="1914"
     inkscape:window-height="1052"
     inkscape:window-x="0"
     inkscape:window-y="22"
     inkscape:window-maximized="0"
     inkscape:snap-bbox="true"
     inkscape:bbox-paths="true"
     inkscape:bbox-nodes="true"
     inkscape:snap-bbox-edge-midpoints="true"
     inkscape:snap-bbox-midpoints="true"
     inkscape:snap-global="true"
     showguides="true"
     inkscape:guide-bbox="true"
     inkscape:snap-text-baseline="true" />
  <metadata
     id="metadata3063">
    <rdf:RDF>
      <cc:Work
         rdf:about="">
        <dc:format>image/svg+xml</dc:format>
        <dc:type
           rdf:resource="http://purl.org/dc/dcmitype/StillImage" />
        <dc:title>Freifunk Ortenau Logo</dc:title>
        <dc:creator>
          <cc:Agent>
            <dc:title>Jonathan Schwarzenböck</dc:title>
          </cc:Agent>
        </dc:creator>
        <dc:publisher>
          <cc:Agent>
            <dc:title>ortenau.freifunk.net</dc:title>
          </cc:Agent>
        </dc:publisher>
        <dc:source>freifunk.net</dc:source>
        <dc:subject>
          <rdf:Bag>
            <rdf:li>freifunk</rdf:li>
            <rdf:li>ortenau</rdf:li>
            <rdf:li>flyer</rdf:li>
          </rdf:Bag>
        </dc:subject>
        <dc:contributor>
          <cc:Agent>
            <dc:title>Jonathan Schwarzenböck
Michael Brückner</dc:title>
          </cc:Agent>
        </dc:contributor>
        <cc:license
           rdf:resource="http://creativecommons.org/licenses/by-sa/3.0/" />
      </cc:Work>
      <cc:License
         rdf:about="http://creativecommons.org/licenses/by-sa/3.0/">
        <cc:permits
           rdf:resource="http://creativecommons.org/ns#Reproduction" />
        <cc:permits
           rdf:resource="http://creativecommons.org/ns#Distribution" />
        <cc:requires
           rdf:resource="http://creativecommons.org/ns#Notice" />
        <cc:requires
           rdf:resource="http://creativecommons.org/ns#Attribution" />
        <cc:permits
           rdf:resource="http://creativecommons.org/ns#DerivativeWorks" />
        <cc:requires
           rdf:resource="http://creativecommons.org/ns#ShareAlike" />
      </cc:License>
    </rdf:RDF>
  </metadata>
  <g
     inkscape:label="Ebene 1"
     inkscape:groupmode="layer"
     id="layer1"
     transform="translate(0,-768.89763)">
    <g
       id="g3825"
       transform="translate(-20,0)">
      <g
         id="g3811">
        <path
           inkscape:connector-curvature="0"
           d="m 142.97626,1032.3895 4.06665,0 0,-15.3862 1.2501,0 0,-3.0215 -1.2501,0 0,-0.355 c -0.0115,-0.3861 0.0437,-0.6712 0.16853,-0.8554 0.12394,-0.1843 0.38844,-0.2758 0.79305,-0.2744 l 0.28852,0 0,-3.0216 -1.69824,0 c -1.29956,-0.023 -2.23093,0.2077 -2.794,0.6911 -0.56308,0.4836 -0.83781,1.3573 -0.82451,2.621 l 0,1.1943 -0.96167,0 0,3.0215 0.96167,0 0,15.3862 z"
           id="f-6-9-0-6"
           style="fill:#000000;fill-opacity:1" />
        <path
           inkscape:connector-curvature="0"
           d="m 153.63602,1013.9818 -4.0669,0 0,18.4077 4.0669,0 0,-14.3239 c -0.008,-0.2373 0.0446,-0.4547 0.14855,-0.6518 0.1038,-0.1972 0.28992,-0.3016 0.55845,-0.3139 0.26994,0.012 0.46144,0.1167 0.57456,0.3139 0.11329,0.1971 0.16812,0.4145 0.16466,0.6518 l 0,5.8261 4.06688,0 0,-6.9204 c 0.0206,-1.0058 -0.14879,-1.7908 -0.5084,-2.3549 -0.35969,-0.564 -1.03343,-0.8506 -2.02144,-0.86 -0.69982,0.01 -1.28627,0.1641 -1.75901,0.4782 -0.47249,0.314 -0.85936,0.755 -1.16017,1.3223 l -0.0644,0 0,-1.5751 z"
           id="r-7-6-2-4"
           style="fill:#000000;fill-opacity:1" />
        <path
           inkscape:connector-curvature="0"
           d="m 160.91911,1028.4656 c 0.0363,1.3834 0.50767,2.4208 1.41329,3.1121 0.90551,0.6915 2.0258,1.037 3.36062,1.037 1.32211,0 2.4438,-0.3455 3.36443,-1.037 0.92112,-0.6913 1.40154,-1.7287 1.44144,-3.1121 l 0,-3.379 -4.06666,0 0,3.5401 c 0,0.2377 -0.0513,0.455 -0.16465,0.6524 -0.1133,0.1972 -0.30461,0.302 -0.57456,0.3141 -0.26853,-0.012 -0.45482,-0.1169 -0.55845,-0.3141 -0.10404,-0.1974 -0.15342,-0.4147 -0.1488,-0.6524 l 0,-4.7993 5.51312,0 0,-5.9217 c -0.0396,-1.3834 -0.52031,-2.4208 -1.44144,-3.1123 -0.92062,-0.6912 -2.04232,-1.037 -3.36443,-1.037 -1.33482,0 -2.45511,0.3458 -3.36062,1.037 -0.90561,0.6915 -1.37678,1.7289 -1.41327,3.1123 l 0,10.5599 z m 4.06666,-7.4025 0,-3.3185 c -0.008,-0.2375 0.0446,-0.455 0.14879,-0.6524 0.10364,-0.1974 0.28993,-0.302 0.55846,-0.314 0.26994,0.012 0.46126,0.1166 0.57456,0.314 0.11304,0.1974 0.16787,0.4149 0.16465,0.6524 l 0,3.3185 -1.44646,0 z"
           id="e-4-4-4-1"
           style="fill:#000000;fill-opacity:1" />
        <path
           inkscape:connector-curvature="0"
           d="m 176.43181,1032.3895 0,-18.4077 -4.06665,0 0,18.4077 4.06665,0 z m 0,-19.4417 0,-3.4724 -4.06665,0 0,3.4724 4.06665,0 z"
           id="i-0-3-8-3"
           style="fill:#000000;fill-opacity:1" />
        <use
           height="234"
           width="243"
           y="0"
           x="0"
           transform="translate(35.897125,0)"
           id="f2-5-9-6-6"
           xlink:href="#f-6-9-0-6"
           style="fill:#000000;fill-opacity:1" />
        <path
           inkscape:connector-curvature="0"
           d="m 190.98445,1032.3894 4.0669,0 0,-18.4077 -4.0669,0 0,14.3239 c 0.008,0.2373 -0.0446,0.4547 -0.14855,0.6518 -0.1038,0.1972 -0.29008,0.3016 -0.55845,0.3139 -0.26994,-0.012 -0.46143,-0.1167 -0.57456,-0.3139 -0.11304,-0.1971 -0.16812,-0.4145 -0.16465,-0.6518 l 0,-14.3239 -4.06689,0 0,14.6134 c -0.0503,1.0961 0.0743,2.0315 0.37241,2.8061 0.2981,0.7741 1.07066,1.1787 2.31754,1.2136 0.57513,-0.01 1.13905,-0.1707 1.69139,-0.4943 0.55217,-0.3235 0.90823,-0.7697 1.06753,-1.3382 l 0.0644,0 0,1.6071 z"
           id="u-9-5-5-1"
           style="fill:#000000;fill-opacity:1" />
        <use
           height="234"
           width="243"
           y="0"
           x="0"
           transform="matrix(-1,0,0,-1,391.8674,2046.3712)"
           id="n-6-7-0-0"
           xlink:href="#u-9-5-5-1"
           style="fill:#000000;fill-opacity:1" />
        <path
           inkscape:connector-curvature="0"
           d="m 212.29706,1032.3895 0,-9.6866 0.0644,0 1.63457,9.6866 4.16706,0 -1.92325,-10.4911 1.98733,-7.9166 -4.23114,0 -1.63457,8.2706 -0.0644,0 0,-12.777 -4.0669,0 0,22.9141 4.0669,0 z"
           id="k-5-4-9-3"
           style="fill:#000000;fill-opacity:1" />
        <path
           inkscape:connector-curvature="0"
           d="m 223.96737,1032.3895 0,-4.7599 -4.06665,0 0,4.7599 4.06665,0 z"
           id=".-5-9-0-2"
           style="fill:#000000;fill-opacity:1" />
        <use
           height="234"
           width="243"
           y="0"
           x="0"
           transform="matrix(-1,0,0,-1,421.16574,2046.3712)"
           id="n2-6-1-0-7"
           xlink:href="#u-9-5-5-1"
           style="fill:#000000;fill-opacity:1" />
        <use
           height="234"
           width="243"
           y="0"
           x="0"
           transform="translate(76.545274,0)"
           id="e2-4-4-6-0"
           xlink:href="#e-4-4-4-1"
           style="fill:#000000;fill-opacity:1" />
        <path
           inkscape:connector-curvature="0"
           d="m 253.52198,1010.634 -4.06665,0 0,3.3478 -1.0899,0 0,3.0215 1.0899,0 0,11.6561 c -0.0396,1.3936 0.16747,2.369 0.62047,2.9263 0.45284,0.5573 1.38825,0.8252 2.8059,0.8038 l 1.82648,0 0,-3.0217 -0.48101,0 c -0.29578,-0.017 -0.48934,-0.1528 -0.58082,-0.4105 -0.0915,-0.2576 -0.13304,-0.5395 -0.12437,-0.8451 l 0,-11.1089 1.12212,0 0,-3.0215 -1.12212,0 0,-3.3478 z"
           id="t-1-5-1-5"
           style="fill:#000000;fill-opacity:1" />
      </g>
      <path
         inkscape:connector-curvature="0"
         d="m 140.60974,1032.3895 0,-4.7599 -4.06665,0 0,4.7599 4.06665,0 z"
         id="path55392-0-6-4-4"
         style="fill:#dc0067;fill-opacity:1" />
    </g>
    <g
       id="g4237"
       transform="translate(-20,0)">
      <g
         id="g4207">
        <path
           style="fill:#000000"
           d="m 139.96875,117.15625 c 0,1.59506 -0.004,3.18619 0,4.78125 1.28765,-0.001 2.5561,0.001 3.84375,0 0,-1.59651 0.006,-3.18619 0,-4.78125 -1.28765,0.001 -2.5561,-0.001 -3.84375,0 z m 0.46875,0.46875 c 0.96574,-0.004 1.93907,-0.001 2.90625,0 0,1.2717 0.003,2.5408 0,3.8125 -0.96573,0.002 -1.94196,-0.001 -2.90625,0 -0.006,-1.2717 0.003,-2.5408 0,-3.8125 z"
           transform="translate(0,768.89763)"
           id="path4048"
           inkscape:connector-curvature="0" />
        <path
           style="fill:#000000"
           d="m 132.11283,895.35648 c 0,2.40129 -0.003,4.8189 0,7.21875 0.11423,-9e-5 0.22935,5e-5 0.34375,0 0.20915,-0.16448 0.41797,-0.33297 0.625,-0.5 -0.15647,-1e-5 -0.31129,-1.6e-4 -0.46875,0 -0.004,-2.07794 0,-4.14082 0,-6.21875 0.96574,0 1.90781,-0.006 2.875,0 -0.002,1.39921 -6.5e-4,2.79276 0,4.1875 0.16542,-0.14745 0.33613,-0.28835 0.5,-0.4375 -3.5e-4,-1.41826 -5.9e-4,-2.83711 0,-4.25 -1.2891,-0.002 -2.5859,0 -3.875,0 z"
           id="path4006"
           inkscape:connector-curvature="0" />
        <path
           style="fill:#000000"
           d="m 139.95658,895.35648 c 0,0.10395 1e-5,0.20849 0,0.3125 0.0952,-0.10324 0.18671,-0.20863 0.28125,-0.3125 -0.0941,2e-5 -0.18693,0 -0.28125,0 z"
           id="path4004"
           inkscape:connector-curvature="0" />
      </g>
    </g>
    <g
       id="g3851"
       transform="translate(-20,0)">
      <path
         inkscape:connector-curvature="0"
         style="fill:#ffb400;fill-opacity:1"
         id="path7-7-3-8-7"
         d="m 168.38376,937.23491 18.01227,-18.09426 16.96311,0 -12.00778,12.0631 24.03666,-2.2e-4 0,12.06118 -24.03666,0 12.00778,12.06278 -16.96311,0 -18.01227,-18.09417 z" />
      <path
         inkscape:connector-curvature="0"
         id="path6-4-7-4-9"
         d="m 189.5868,878.64258 c -25.72526,0 -46.59553,20.95966 -46.59553,46.78675 0,25.8272 20.87029,46.78895 46.59553,46.78895 25.72535,0 46.59554,-20.96175 46.59554,-46.78895 0,-25.82709 -20.87018,-46.78675 -46.59554,-46.78675 z m 0,1.89679 c 24.69605,0 44.69874,20.08354 44.69874,44.88996 0,24.80653 -20.00268,44.89216 -44.69874,44.89216 -24.69595,0 -44.69874,-20.08563 -44.69874,-44.89216 0,-24.80641 20.0028,-44.88996 44.69874,-44.88996 z"
         style="color:#000000;font-style:normal;font-variant:normal;font-weight:normal;font-stretch:normal;font-size:medium;line-height:normal;font-family:sans-serif;text-indent:0;text-align:start;text-decoration:none;text-decoration-line:none;letter-spacing:normal;word-spacing:normal;text-transform:none;direction:ltr;block-progression:tb;writing-mode:lr-tb;baseline-shift:baseline;text-anchor:start;display:inline;overflow:visible;visibility:visible;fill:#dc0067;fill-opacity:1;fill-rule:nonzero;stroke:none;enable-background:accumulate" />
      <path
         inkscape:connector-curvature="0"
         id="path5-2-4-3-2"
         d="m 189.5868,859.94501 c -35.9734,0 -65.23374,29.39773 -65.23374,65.48432 0,36.08648 29.26034,65.4865 65.23374,65.4865 35.9737,0 65.23375,-29.40002 65.23375,-65.4865 0,-36.08659 -29.26005,-65.48432 -65.23375,-65.48432 z m 0,11.33899 c 29.81949,0 53.89257,24.16136 53.89257,54.14533 0,29.98384 -24.07308,54.14533 -53.89257,54.14532 -29.81912,0 -53.89477,-24.16148 -53.89477,-54.14532 0,-29.98397 24.07565,-54.14533 53.89477,-54.14533 z"
         style="color:#000000;font-style:normal;font-variant:normal;font-weight:normal;font-stretch:normal;font-size:medium;line-height:normal;font-family:sans-serif;text-indent:0;text-align:start;text-decoration:none;text-decoration-line:none;letter-spacing:normal;word-spacing:normal;text-transform:none;direction:ltr;block-progression:tb;writing-mode:lr-tb;baseline-shift:baseline;text-anchor:start;display:inline;overflow:visible;visibility:visible;fill:#dc0067;fill-opacity:1;fill-rule:nonzero;stroke:none;enable-background:accumulate" />
    </g>
    <g
       id="g3847"
       transform="translate(-20,0)">
      <path
         inkscape:connector-curvature="0"
         style="fill:#ffb400;fill-opacity:1"
         id="path4-0-4-2-3"
         d="m 114.95751,937.23491 -10.63816,-10.68658 -10.018741,0 7.091881,7.12451 -14.194871,2e-4 0,7.12608 14.194871,0 -7.091881,7.12451 10.018741,0 10.63816,-10.68681 z" />
      <path
         style="color:#000000;font-style:normal;font-variant:normal;font-weight:normal;font-stretch:normal;font-size:medium;line-height:normal;font-family:sans-serif;text-indent:0;text-align:start;text-decoration:none;text-decoration-line:none;letter-spacing:normal;word-spacing:normal;text-transform:none;direction:ltr;block-progression:tb;writing-mode:lr-tb;baseline-shift:baseline;text-anchor:start;display:inline;overflow:visible;visibility:visible;fill:#dc0067;fill-opacity:1;fill-rule:nonzero;stroke:none;enable-background:accumulate"
         d="m 113.85587,903.25909 c -24.012281,0 -43.494291,19.56749 -43.494291,43.67452 0,24.10723 19.482,43.67232 43.494291,43.67232 24.0126,0 43.49429,-19.56509 43.49429,-43.67232 0,-24.10702 -19.4817,-43.67452 -43.49429,-43.67452 z m 0,1.89679 c 22.98331,0 41.59751,18.6914 41.59751,41.77773 0,23.08655 -18.61421,41.77553 -41.59751,41.77553 -22.982961,0 -41.597501,-18.68898 -41.597501,-41.77553 0,-23.08634 18.61452,-41.77773 41.597501,-41.77773 z"
         id="path6054"
         inkscape:connector-curvature="0" />
    </g>
    <text
       xml:space="preserve"
       style="font-style:normal;font-variant:normal;font-weight:normal;font-stretch:normal;font-size:42.92565918px;line-height:129.99999523%;font-family:'Just Another Hand';-inkscape-font-specification:'Just Another Hand, Normal';text-align:start;letter-spacing:0px;word-spacing:0px;writing-mode:lr-tb;text-anchor:start;fill:#dc0067;fill-opacity:1;stroke:none;stroke-width:1px;stroke-linecap:butt;stroke-linejoin:miter;stroke-opacity:1"
       x="48.92926"
       y="998.82281"
       id="text4171"
       sodipodi:linespacing="130%"
       transform="scale(0.96764065,1.0334415)"><tspan
         sodipodi:role="line"
         id="tspan4173"
         x="48.92926"
         y="998.82281"
         style="font-style:normal;font-variant:normal;font-weight:normal;font-stretch:normal;font-size:42.92565918px;line-height:129.99999523%;font-family:'Just Another Hand';-inkscape-font-specification:'Just Another Hand, Normal';text-align:start;writing-mode:lr-tb;text-anchor:start;fill:#dc0067;fill-opacity:1">ortenau</tspan></text>
    <text
       xml:space="preserve"
       style="font-style:normal;font-weight:normal;font-size:40px;line-height:125%;font-family:sans-serif;letter-spacing:0px;word-spacing:0px;fill:#dc0067;fill-opacity:1;stroke:none;stroke-width:1px;stroke-linecap:butt;stroke-linejoin:miter;stroke-opacity:1"
       x="46.07143"
       y="842.36218"
       id="text4387"
       sodipodi:linespacing="125%"><tspan
         sodipodi:role="line"
         id="tspan4389"
         x="46.07143"
         y="842.36218"
         style="font-style:normal;font-variant:normal;font-weight:normal;font-stretch:normal;font-size:50px;line-height:125%;font-family:'Just Another Hand';-inkscape-font-specification:'Just Another Hand, Normal';text-align:start;writing-mode:lr-tb;text-anchor:start;fill:#dc0067;fill-opacity:1">Freies WLAN mit</tspan></text>
  </g>
</svg>
